<svg id="Layer_1" data-name="Layer 1" xmlns="http://www.w3.org/2000/svg" viewBox="0 0 61.54715 49.87264"><defs><style>.cls-1{opacity:0.5;}.cls-2{stroke:#000;stroke-miterlimit:10;stroke-width:4px;}</style></defs><title>aevus_icon_b</title><g class="cls-1"><path class="cls-2" d="M124.41785,121.02956l.1649,13.43011c.03929,20.13856.04926,11.596.03247,12.09516" transform="translate(-94.22643 -100.06368)"/><path class="cls-2" d="M124.02782,125.53536c.12921-.41266.2677-.8393.41974-1.28559-.26727-.26159-.53119-.52844-.78662-.80731a26.962,26.962,0,0,0-5.68829-12.36365c-4.516-5.30511-13.23389-10.69335-17.86445-7.899-5.35034,3.2287-5.65521,17.62854,2.15949,23.71991,4.26477,3.32428,10.50592,3.82959,15.46991,2.02405a16.66841,16.66841,0,0,0,5.86322-3.69092" transform="translate(-94.22643 -100.06368)"/><path class="cls-2" d="M150.40758,103.3821c-4.93439-3.48743-13.64386.57721-17.1626,4.835a43.17556,43.17556,0,0,0-4.21038,5.94861,56.56532,56.56532,0,0,0-4.587,10.084c5.003,4.89783,11.98688,6.75391,18.01294,4.674a16.87708,16.87708,0,0,0,9.39758-8.67469C154.27739,115.09505,155.01183,106.63625,150.40758,103.3821Z" transform="translate(-94.22643 -100.06368)"/></g><g class="cls-1"><path class="cls-2" d="M124.41785,126.08339V143.942c.44289,10.83579-.06943-4.0505.002-6.04881" transform="translate(-94.22643 -100.06368)"/><path class="cls-2" d="M124.18426,125.7109c.10352-.311.21446-.63258.33626-.969-.21411-.19716-.42554-.39829-.63018-.60847a19.77962,19.77962,0,0,0-4.557-9.3186c-3.61787-3.99851-10.602-8.05968-14.31163-5.95354-4.28629,2.4335-4.53053,13.2868,1.73,17.87792,3.41661,2.50554,8.41655,2.88639,12.39332,1.52554a13.47626,13.47626,0,0,0,4.69717-2.78188" transform="translate(-94.22643 -100.06368)"/><path class="cls-2" d="M145.31773,109.01379c-3.95306-2.62851-10.93043.43505-13.74938,3.6442a32.61729,32.61729,0,0,0-3.373,4.48352,41.44763,41.44763,0,0,0-3.67479,7.60043,14.85652,14.85652,0,0,0,14.43061,3.52285,13.16022,13.16022,0,0,0,7.52863-6.53819C148.41793,117.842,149.0063,111.46647,145.31773,109.01379Z" transform="translate(-94.22643 -100.06368)"/></g></svg>