<svg id="Layer_1" data-name="Layer 1" xmlns="http://www.w3.org/2000/svg" viewBox="0 0 59.44563 61.48856"><defs><style>.cls-1,.cls-2{fill:#22b573;stroke:#fff;stroke-miterlimit:10;stroke-width:0.25px;}.cls-1{opacity:0.5;}.cls-2{opacity:0.25;}</style></defs><title>ambulo_icon_color</title><path class="cls-1" d="M155.26394,127.67431l-.00586-.15332c-.36035-9.43067-3.56836-13.05567-6.19629-14.4375a11.51759,11.51759,0,0,0-2.51563-.89454,12.76867,12.76867,0,0,1-3.12817-1.1676,54.90135,54.90135,0,0,0,10.83325-15.53943l-2.69336-1.32031a51.25125,51.25125,0,0,1-10.59741,15.05274,12.72131,12.72131,0,0,1-1.68384-2.0625,13.90065,13.90065,0,0,0-1.57519-1.97364c-4.56543-4.61719-12.49414-3.8789-14.81543-3.542h-.001c-3.76855.5459-9.28906,2.48535-14.18359,8.62109-5.00391,6.28028-5.87207,14.26661-6.15821,16.89161q-.12744,1.185-.26074,2.36914-.16553,1.47656-.32519,2.95312l-.207,1.96582a32.67374,32.67374,0,0,1-.74122,5.17871,19.07521,19.07521,0,0,1-2.09179,5.4961c-1.0127,1.64453-1.5293,2.46777-1.55762,2.51171-.23828.373-.43359.66993-.59082.91114-.582.88769-.70313,1.07324-.67969,1.46875a.883.883,0,0,0,.39844.56836c1.98437,1.61523,10.75,4.78613,21.49121,4.78613a51.80146,51.80146,0,0,0,7.418-.52441c5.0918-.73633,20.58887-2.97657,27.02148-14.7334A24.34648,24.34648,0,0,0,155.26394,127.67431Z" transform="translate(-95.96143 -93.99434)"/><path class="cls-2" d="M121.03026,110.627c.92555-.11877,7.8857-1.01192,11.71258,2.98575,1.35158,1.41194,1.52647,2.613,3.5425,4.13345,2.317,1.74748,3.84549,1.48792,5.5501,2.41945,4.6031,2.51549,4.65906,10.01579,4.69776,11.65792a19.4681,19.4681,0,0,1-2.42868,9.86376c-5.27877,9.28551-17.48469,10.85635-21.80216,11.40921-12.73733,1.631-23.26753-3.16943-23.30806-4.08445-.01429-.32329.12732-.43407,1.02085-1.7788.01684-.02532.44413-.68248,1.28854-2.00523a15.51471,15.51471,0,0,0,1.7815-4.45332,39.46232,39.46232,0,0,0,.86343-5.76909c.17584-1.42619.363-2.851.54147-4.27686.2755-2.2015,1.06027-8.471,5.13574-13.41731A17.96743,17.96743,0,0,1,121.03026,110.627Z" transform="translate(-95.96143 -93.99434)"/><path class="cls-2" d="M117.31082,122.52056c.61647-.0791,5.25234-.674,7.80128,1.98869.90023.94044,1.01672,1.74041,2.35951,2.75312,1.54327,1.16393,2.56133.99105,3.6967,1.6115,3.06594,1.67547,3.10321,6.67112,3.129,7.76488a12.96683,12.96683,0,0,1-1.61764,6.56985c-3.516,6.1847-11.64585,7.231-14.52155,7.59921-8.48382,1.08637-15.49756-2.111-15.52456-2.72049-.00952-.21532.08481-.28911.68-1.18478.01121-.01686.29582-.45458.85824-1.33561a10.33339,10.33339,0,0,0,1.18659-2.96617,26.28509,26.28509,0,0,0,.57509-3.84256c.11713-.94993.24177-1.89893.36066-2.84865a17.447,17.447,0,0,1,3.42071-8.93673A11.96734,11.96734,0,0,1,117.31082,122.52056Z" transform="translate(-95.96143 -93.99434)"/></svg>