<svg id="Layer_1" data-name="Layer 1" xmlns="http://www.w3.org/2000/svg" viewBox="0 0 59.44563 61.48856"><defs><style>.cls-1,.cls-2{fill:#fff;stroke:#000;stroke-miterlimit:10;stroke-width:0.25px;}.cls-1{opacity:0.5;}.cls-2{opacity:0.25;}</style></defs><title>ambulo_icon_w</title><path class="cls-1" d="M154.80528,128.544l-.00585-.15332c-.36036-9.43067-3.56836-13.05567-6.19629-14.4375a11.517,11.517,0,0,0-2.51563-.89453,12.769,12.769,0,0,1-3.12817-1.16761,54.90135,54.90135,0,0,0,10.83325-15.53943l-2.69336-1.32031A51.25125,51.25125,0,0,1,140.50182,110.084a12.72131,12.72131,0,0,1-1.68384-2.0625,13.90006,13.90006,0,0,0-1.5752-1.97364c-4.56542-4.61718-12.49414-3.8789-14.81542-3.542h-.001c-3.76856.5459-9.28906,2.48535-14.1836,8.6211-5.0039,6.28027-5.87207,14.2666-6.1582,16.8916q-.12744,1.18506-.26074,2.36914-.16553,1.47655-.3252,2.95312l-.207,1.96582a32.67414,32.67414,0,0,1-.74121,5.17871,19.07521,19.07521,0,0,1-2.09179,5.4961c-1.0127,1.64453-1.5293,2.46777-1.55762,2.51172-.23828.373-.4336.66992-.59082.91113-.582.88769-.70313,1.07324-.67969,1.46875a.883.883,0,0,0,.39844.56836c1.98437,1.61523,10.75,4.78613,21.49121,4.78613a51.80146,51.80146,0,0,0,7.418-.52441c5.09179-.73633,20.58886-2.97657,27.02148-14.7334A24.34634,24.34634,0,0,0,154.80528,128.544Z" transform="translate(-95.50278 -94.86403)"/><path class="cls-2" d="M120.57161,111.49664c.92555-.11877,7.88569-1.01192,11.71258,2.98575,1.35158,1.41194,1.52647,2.613,3.5425,4.13345,2.317,1.74748,3.84549,1.48792,5.5501,2.41945,4.6031,2.51549,4.65905,10.01579,4.69776,11.65792a19.46808,19.46808,0,0,1-2.42868,9.86376c-5.27877,9.28551-17.48469,10.85635-21.80216,11.40921-12.73734,1.631-23.26753-3.16943-23.30806-4.08445-.0143-.32329.12732-.43407,1.02085-1.7788.01683-.02532.44413-.68248,1.28853-2.00523a15.51477,15.51477,0,0,0,1.78151-4.45332,39.463,39.463,0,0,0,.86342-5.76909c.17585-1.42619.363-2.851.54148-4.27686.2755-2.2015,1.06027-8.471,5.13574-13.41731A17.96743,17.96743,0,0,1,120.57161,111.49664Z" transform="translate(-95.50278 -94.86403)"/><path class="cls-2" d="M116.85217,123.39025c.61647-.0791,5.25234-.674,7.80128,1.98869.90023.94044,1.01672,1.74041,2.35951,2.75312,1.54327,1.16393,2.56133.99105,3.6967,1.61151,3.06594,1.67546,3.10321,6.67111,3.129,7.76487a12.967,12.967,0,0,1-1.61765,6.56985c-3.516,6.18471-11.64585,7.231-14.52154,7.59921-8.48383,1.08637-15.49756-2.111-15.52456-2.72048-.00952-.21533.0848-.28912.68-1.18479.01121-.01686.29581-.45458.85824-1.33561a10.33368,10.33368,0,0,0,1.18659-2.96617,26.28509,26.28509,0,0,0,.57509-3.84256c.11712-.94993.24176-1.89892.36065-2.84865a17.4471,17.4471,0,0,1,3.42072-8.93673A11.96738,11.96738,0,0,1,116.85217,123.39025Z" transform="translate(-95.50278 -94.86403)"/></svg>