<svg id="Layer_1" data-name="Layer 1" xmlns="http://www.w3.org/2000/svg" viewBox="0 0 96.32492 44.79833"><defs><style>.cls-1{fill:#0071bc;opacity:0.5;}.cls-2{fill:#2e3192;}.cls-2,.cls-3{opacity:0.25;}.cls-3{fill:#1b1464;}</style></defs><title>chromatic_icon_color</title><polyline class="cls-1" points="96.325 44.798 57.25 0 18.175 44.798"/><polyline class="cls-2" points="78.063 44.798 52.22 15.17 26.378 44.798"/><polyline class="cls-3" points="87.619 44.798 62.241 15.704 36.864 44.798"/><polyline class="cls-3" points="96.325 44.798 70.948 15.704 45.57 44.798"/><polyline class="cls-3" points="68.948 44.798 43.57 15.704 18.193 44.798"/><polyline class="cls-1" points="51.685 44.798 25.843 15.17 0 44.798"/><polyline class="cls-2" points="39.608 44.798 22.516 25.204 5.425 44.798"/><polyline class="cls-3" points="45.927 44.798 29.144 25.556 12.36 44.798"/><polyline class="cls-2" points="51.685 44.798 34.902 25.556 18.118 44.798"/><polyline class="cls-3" points="33.579 44.798 16.796 25.556 0.012 44.798"/></svg>