<svg id="Layer_1" data-name="Layer 1" xmlns="http://www.w3.org/2000/svg" viewBox="0 0 216.45 147.85"><defs><style>.cls-1{fill:#fff;opacity:0.5;}</style></defs><title>aevus_icon_w</title><path class="cls-1" d="M72.14,198.93H201.08c19.8-6.48,33.92-23.33,33.92-43.11,0-24.17-21.07-44-47.82-45.8-2.75-33.06-27.65-58.95-58-58.95C103.5,51.07,81.7,69.68,74,95.49c-30.82,1.1-55.43,23.85-55.43,51.77C18.55,174.62,42.19,197,72.14,198.93Z" transform="translate(-18.55 -51.07)"/><path class="cls-1" d="M79.63,193.31H190.89c17.08-5.59,29.27-20.13,29.27-37.2,0-20.85-18.18-37.93-41.26-39.52-2.38-28.52-23.86-50.86-50-50.86-22.19,0-41,16.06-47.66,38.33-26.59,1-47.83,20.58-47.83,44.67C33.39,172.34,53.79,191.66,79.63,193.31Z" transform="translate(-18.55 -51.07)"/></svg>