<svg id="Layer_1" data-name="Layer 1" xmlns="http://www.w3.org/2000/svg" viewBox="0 0 216.64 147.98"><defs><style>.cls-1{opacity:0.5;}</style></defs><title>aevus_icon_bw</title><path class="cls-1" d="M72.32,199H201.37c19.81-6.48,33.95-23.35,33.95-43.15,0-24.18-21.08-44-47.86-45.84-2.76-33.08-27.68-59-58-59-25.73,0-47.55,18.63-55.28,44.46-30.84,1.09-55.48,23.87-55.48,51.81C18.68,174.67,42.34,197.07,72.32,199Z" transform="translate(-18.68 -51.01)"/><path class="cls-1" d="M79.82,193.37H191.17c17.1-5.59,29.3-20.14,29.3-37.23,0-20.87-18.2-38-41.3-39.55C176.79,88,155.29,65.68,129.1,65.68c-22.2,0-41,16.08-47.69,38.36-26.62.95-47.88,20.6-47.88,44.71C33.53,172.38,54,191.72,79.82,193.37Z" transform="translate(-18.68 -51.01)"/></svg>