<svg id="Layer_1" data-name="Layer 1" xmlns="http://www.w3.org/2000/svg" viewBox="0 0 61.69659 61.69659"><defs><style>.cls-1{fill:#00a99d;opacity:0.5;}.cls-2{fill:#fff;}</style></defs><title>HH_icon_color</title><circle class="cls-1" cx="30.8483" cy="30.8483" r="19.35691"/><circle class="cls-1" cx="30.8483" cy="30.8483" r="25.84939"/><circle class="cls-1" cx="30.8483" cy="30.8483" r="30.8483"/><ellipse class="cls-2" cx="117.98912" cy="124.62255" rx="2.48945" ry="3.41493" transform="translate(-124.71985 -56.31126) rotate(-16.1313)"/><ellipse class="cls-2" cx="122.53257" cy="119.81105" rx="2.44903" ry="3.47129" transform="translate(-98.8269 -89.67274) rotate(-1.99002)"/><ellipse class="cls-2" cx="133.18808" cy="124.62255" rx="3.41493" ry="2.48945" transform="translate(-118.27298 123.94162) rotate(-73.8687)"/><ellipse class="cls-2" cx="128.64463" cy="119.81105" rx="3.47129" ry="2.44903" transform="translate(-90.30171 150.2176) rotate(-88.00998)"/><path class="cls-2" d="M125.4148,123.45188c-.96484.00058-1.15538,1.01318-3.30552,3.16126-2.21016,2.208-3.18377,2.31187-3.27115,3.376-.132,1.607,1.90222,3.58359,3.38677,3.34739,1.65635-.26353,1.88183-3.16313,3.22927-3.18986,1.36348-.02706,1.70352,2.93071,3.42614,3.15048a3.38745,3.38745,0,0,0,3.22927-3.15048c-.07218-1.09575-1.1345-1.23026-3.31847-3.41753C126.6302,124.56493,126.42676,123.45127,125.4148,123.45188Z" transform="translate(-94.74031 -94)"/></svg>