<svg id="Layer_1" data-name="Layer 1" xmlns="http://www.w3.org/2000/svg" viewBox="0 0 110.33117 69.79026"><defs><style>.cls-1{fill:#00a99d;}.cls-2{fill:#29abe2;opacity:0.5;}.cls-3{fill:#c0bed2;}</style></defs><title>shift_icon_color</title><path class="cls-1" d="M143.0458,125.30663" transform="translate(-70.25591 -90.17552)"/><path class="cls-2" d="M163.11677,125.07065" transform="translate(-70.25591 -90.17552)"/><path class="cls-2" d="M96.07267,106.46329a34.89044,34.89044,0,1,0,64.01893,23.68144,18.34724,18.34724,0,1,1,.05285-9.79232,34.87914,34.87914,0,0,0-64.07178-13.88912Z" transform="translate(-70.25591 -90.17552)"/><path class="cls-2" d="M150.99736,123.02661a8.4946,8.4946,0,1,1-10.23174-6.29533A8.49458,8.49458,0,0,1,150.99736,123.02661Z" transform="translate(-70.25591 -90.17552)"/><path class="cls-3" d="M180.354,123.10254a8.4946,8.4946,0,1,1-10.23174-6.29533A8.49458,8.49458,0,0,1,180.354,123.10254Z" transform="translate(-70.25591 -90.17552)"/><path class="cls-3" d="M87.01592,123.10254a8.4946,8.4946,0,1,1-10.23173-6.29533A8.49458,8.49458,0,0,1,87.01592,123.10254Z" transform="translate(-70.25591 -90.17552)"/><path class="cls-1" d="M143.0458,125.30663" transform="translate(-70.25591 -90.17552)"/><path class="cls-2" d="M165.11677,125.07065" transform="translate(-70.25591 -90.17552)"/><path class="cls-2" d="M101.48579,108.50583a30.79288,30.79288,0,1,0,56.5005,20.90026,16.19255,16.19255,0,1,1,.04664-8.6423,30.7829,30.7829,0,0,0-56.54714-12.258Z" transform="translate(-70.25591 -90.17552)"/><path class="cls-2" d="M149.61663,123.35546a7.07525,7.07525,0,1,1-8.52213-5.24345A7.07524,7.07524,0,0,1,149.61663,123.35546Z" transform="translate(-70.25591 -90.17552)"/></svg>