<svg id="Layer_1" data-name="Layer 1" xmlns="http://www.w3.org/2000/svg" viewBox="0 0 110.33117 69.79026"><defs><style>.cls-1,.cls-2{fill:#f2f2f2;}.cls-2{opacity:0.5;}</style></defs><title>shift_icon_w</title><path class="cls-1" d="M142.87847,125.51478" transform="translate(-70.08859 -90.38367)"/><path class="cls-2" d="M162.94945,125.2788" transform="translate(-70.08859 -90.38367)"/><path class="cls-2" d="M95.90535,106.67144a34.89044,34.89044,0,1,0,64.01893,23.68144,18.34728,18.34728,0,1,1,.05284-9.79232,34.87913,34.87913,0,0,0-64.07177-13.88912Z" transform="translate(-70.08859 -90.38367)"/><path class="cls-2" d="M150.83,123.23475a8.4946,8.4946,0,1,1-10.23173-6.29532A8.49457,8.49457,0,0,1,150.83,123.23475Z" transform="translate(-70.08859 -90.38367)"/><path class="cls-2" d="M180.18669,123.31068a8.4946,8.4946,0,1,1-10.23173-6.29532A8.49458,8.49458,0,0,1,180.18669,123.31068Z" transform="translate(-70.08859 -90.38367)"/><path class="cls-2" d="M86.8486,123.31068a8.49461,8.49461,0,1,1-10.23174-6.29532A8.49458,8.49458,0,0,1,86.8486,123.31068Z" transform="translate(-70.08859 -90.38367)"/><path class="cls-1" d="M142.87847,125.51478" transform="translate(-70.08859 -90.38367)"/><path class="cls-2" d="M164.94945,125.2788" transform="translate(-70.08859 -90.38367)"/><path class="cls-2" d="M101.31847,108.714a30.79288,30.79288,0,1,0,56.5005,20.90027,16.19254,16.19254,0,1,1,.04664-8.6423,30.78291,30.78291,0,0,0-56.54714-12.258Z" transform="translate(-70.08859 -90.38367)"/><path class="cls-2" d="M149.4493,123.5636a7.07525,7.07525,0,1,1-8.52213-5.24344A7.07523,7.07523,0,0,1,149.4493,123.5636Z" transform="translate(-70.08859 -90.38367)"/></svg>