<svg id="Layer_1" data-name="Layer 1" xmlns="http://www.w3.org/2000/svg" viewBox="0 0 61.69659 61.69659"><defs><style>.cls-1{fill:#fff;opacity:0.5;}.cls-2{fill:#1fb3a9;}</style></defs><title>HH_icon_w</title><circle class="cls-1" cx="30.8483" cy="30.8483" r="19.35691"/><circle class="cls-1" cx="30.8483" cy="30.8483" r="25.84939"/><circle class="cls-1" cx="30.8483" cy="30.8483" r="30.8483"/><ellipse class="cls-2" cx="118.37162" cy="124.89713" rx="2.48945" ry="3.41493" transform="translate(-125.16357 -56.46876) rotate(-16.1313)"/><ellipse class="cls-2" cx="122.91507" cy="120.08563" rx="2.44903" ry="3.47129" transform="translate(-99.2187 -89.93387) rotate(-1.99002)"/><ellipse class="cls-2" cx="133.57058" cy="124.89713" rx="3.41493" ry="2.48945" transform="matrix(0.27784, -0.96063, 0.96063, 0.27784, -118.64302, 124.23276)"/><ellipse class="cls-2" cx="129.02713" cy="120.08563" rx="3.47129" ry="2.44903" transform="translate(-90.5894 150.59033) rotate(-88.00998)"/><path class="cls-2" d="M125.79729,123.72646c-.96483.00058-1.15538,1.01318-3.30551,3.16126-2.21017,2.208-3.18378,2.31187-3.27116,3.376-.132,1.607,1.90222,3.58359,3.38678,3.34739,1.65635-.26353,1.88183-3.16313,3.22926-3.18986,1.36348-.02706,1.70352,2.93071,3.42615,3.15048a3.38744,3.38744,0,0,0,3.22926-3.15048c-.07218-1.09575-1.1345-1.23026-3.31846-3.41753C127.0127,124.83951,126.80925,123.72585,125.79729,123.72646Z" transform="translate(-95.1228 -94.27458)"/></svg>